<svg width="130" height="40" fill="none" xmlns="http://www.w3.org/2000/svg"><rect width="130" height="40" rx="8" fill="#000"/><rect x=".5" y=".5" width="129" height="39" rx="7.5" stroke="#A6A6A6"/><path d="M36.57 11.25h.8a1 1 0 001.11-.95c0-.55-.4-.9-1.1-.9a1.05 1.05 0 00-1.2.93h-.88a1.88 1.88 0 012.1-1.74c1.17 0 2 .65 2 1.6a1.39 1.39 0 01-1.09 1.37v.07a1.38 1.38 0 011.32 1.44 2 2 0 01-2.21 1.77 1.97 1.97 0 01-2.23-1.76h.88c.05.57.58.94 1.35.94.77 0 1.27-.42 1.27-1 0-.6-.47-.96-1.3-.96h-.82v-.8zM40.64 13.42c0-.8.6-1.27 1.67-1.34l1.21-.07v-.39c0-.47-.31-.74-.92-.74-.49 0-.83.18-.93.5h-.86c.1-.78.82-1.27 1.84-1.27 1.12 0 1.75.56 1.75 1.51v3.08h-.85v-.64h-.07a1.51 1.51 0 01-1.34.71 1.35 1.35 0 01-1.5-1.35zm2.88-.38v-.38l-1.1.07c-.61.04-.89.26-.89.65 0 .4.35.64.83.64a1.05 1.05 0 001.16-.98zM46.75 10.94v3.76h-.88v-4.5h2.95v.74h-2.07zM54.18 12.44c0 1.44-.72 2.33-1.85 2.33a1.46 1.46 0 01-1.38-.75h-.07v2.17h-.89v-6h.85v.75h.07a1.56 1.56 0 011.4-.82c1.15 0 1.87.9 1.87 2.32zm-.91 0c0-.95-.45-1.52-1.2-1.52-.74 0-1.2.59-1.2 1.53 0 .94.46 1.52 1.2 1.52.75 0 1.2-.57 1.2-1.53zM55.36 16.31v-.76l.29.01a.76.76 0 00.8-.63l.07-.22-1.62-4.52h.96L57 13.77h.07l1.12-3.58h.93l-1.67 4.7c-.38 1.09-.8 1.44-1.72 1.44-.07 0-.28 0-.36-.02zM59.8 13.42h.88c.1.4.46.6.98.6.59 0 .95-.26.95-.66 0-.44-.32-.64-.95-.64h-.67v-.7h.66c.53 0 .8-.2.8-.58 0-.33-.26-.58-.8-.58-.5 0-.86.21-.92.57h-.85a1.58 1.58 0 011.77-1.32c1.06 0 1.67.48 1.67 1.24a.93.93 0 01-.7.92v.07a1 1 0 01.87 1.02c0 .85-.72 1.42-1.83 1.42-.98 0-1.77-.45-1.86-1.36zM64.77 14.7v-4.5h.87v3.1h.07l2.07-3.1h.87v4.5h-.87v-3.12h-.07l-2.07 3.12h-.87zM73.48 10.94h-1.4v3.76h-.9v-3.76h-1.4v-.75h3.7v.75zM78.25 13.48a1.83 1.83 0 01-1.94 1.3 2.03 2.03 0 01-2-1.44 2.05 2.05 0 01-.07-.88 2.09 2.09 0 012.06-2.35c1.25 0 2 .85 2 2.27v.3h-3.16v.06a1.2 1.2 0 001.2 1.29 1.07 1.07 0 001.06-.55h.85zm-3.11-1.45h2.26a1.09 1.09 0 00-1.1-1.17 1.14 1.14 0 00-1.16 1.17zM82 10.2h2.02c.88 0 1.4.44 1.4 1.14a.97.97 0 01-.77.95v.07a1.02 1.02 0 01.96 1.04c0 .79-.59 1.3-1.57 1.3H82v-4.5zm.88.68v1.16h.87c.54 0 .8-.2.8-.58 0-.36-.23-.58-.7-.58h-.97zm0 1.82v1.32h1.05c.52 0 .8-.24.8-.66 0-.45-.32-.66-.92-.66h-.93zM24.65 20.3A4.97 4.97 0 0127 16.15a5.05 5.05 0 00-3.97-2.16c-1.67-.18-3.3 1-4.15 1-.86 0-2.18-.98-3.59-.95a5.27 5.27 0 00-4.45 2.73c-1.93 3.34-.49 8.27 1.35 10.97.93 1.33 2 2.8 3.42 2.75 1.38-.05 1.9-.88 3.56-.88 1.65 0 2.13.88 3.57.85 1.49-.02 2.42-1.33 3.3-2.67.67-.94 1.18-1.99 1.52-3.09a4.77 4.77 0 01-2.9-4.4zM21.94 12.21c.8-.97 1.2-2.23 1.1-3.49a4.93 4.93 0 00-4.09 3.23c-.2.57-.28 1.18-.24 1.8a4.06 4.06 0 003.23-1.54zM42.1 27.14h-4.7l-1.14 3.36h-2l4.47-12.42h2.07l4.47 12.42h-2.03l-1.13-3.36zm-4.22-1.55h3.74l-1.84-5.45h-.05l-1.85 5.45zM54.9 25.97c0 2.81-1.5 4.62-3.76 4.62a3.04 3.04 0 01-2.83-1.58h-.04v4.48h-1.85V21.44h1.79v1.5h.03a3.2 3.2 0 012.87-1.6c2.29 0 3.8 1.82 3.8 4.63zm-1.9 0c0-1.83-.94-3.04-2.38-3.04-1.41 0-2.36 1.23-2.36 3.04 0 1.82.95 3.05 2.36 3.05 1.44 0 2.38-1.2 2.38-3.05zM64.82 25.97c0 2.81-1.5 4.62-3.76 4.62a3.04 3.04 0 01-2.83-1.58h-.04v4.48h-1.85V21.44h1.79v1.5h.03a3.2 3.2 0 012.87-1.6c2.29 0 3.8 1.82 3.8 4.63zm-1.9 0c0-1.83-.94-3.04-2.38-3.04-1.41 0-2.36 1.23-2.36 3.04 0 1.82.95 3.05 2.36 3.05 1.44 0 2.38-1.2 2.38-3.05zM71.38 27.04c.14 1.23 1.33 2.04 2.95 2.04 1.56 0 2.69-.81 2.69-1.92 0-.97-.68-1.54-2.28-1.94l-1.6-.39c-2.27-.55-3.33-1.61-3.33-3.34 0-2.15 1.86-3.62 4.5-3.62 2.61 0 4.4 1.47 4.46 3.62H76.9c-.1-1.24-1.13-2-2.62-2-1.49 0-2.5.76-2.5 1.87 0 .87.64 1.4 2.24 1.79l1.36.33c2.54.6 3.59 1.63 3.59 3.44 0 2.33-1.84 3.78-4.77 3.78-2.74 0-4.6-1.42-4.71-3.66h1.89zM82.96 19.3v2.14h1.72v1.47h-1.72v5c0 .77.34 1.13 1.1 1.13.2 0 .4-.02.6-.04v1.46c-.33.07-.68.1-1.02.09-1.83 0-2.54-.7-2.54-2.45v-5.19h-1.3v-1.47h1.3V19.3h1.86zM85.67 25.97c0-2.85 1.67-4.64 4.27-4.64 2.61 0 4.28 1.8 4.28 4.64 0 2.86-1.66 4.64-4.28 4.64s-4.27-1.78-4.27-4.64zm6.66 0c0-1.95-.89-3.1-2.39-3.1s-2.39 1.15-2.39 3.1c0 1.96.9 3.1 2.4 3.1s2.38-1.14 2.38-3.1zM95.74 21.44h1.77v1.54h.04a2.16 2.16 0 012.17-1.63c.21 0 .42.02.63.07v1.74a2.57 2.57 0 00-.83-.12 1.86 1.86 0 00-1.85 1.29c-.08.26-.1.53-.08.8v5.37h-1.85v-9.06zM108.88 27.84c-.25 1.64-1.84 2.77-3.88 2.77-2.62 0-4.25-1.77-4.25-4.6 0-2.84 1.64-4.68 4.17-4.68 2.5 0 4.06 1.72 4.06 4.47v.63h-6.36v.12a2.39 2.39 0 00.63 1.83 2.34 2.34 0 001.8.73 2.03 2.03 0 002.07-1.27h1.76zm-6.25-2.7h4.5A2.2 2.2 0 00105.8 23a2.16 2.16 0 00-.87-.16 2.27 2.27 0 00-2.12 1.41 2.3 2.3 0 00-.17.88z" fill="#fff"/></svg>