<svg width="130" height="40" fill="none" xmlns="http://www.w3.org/2000/svg"><rect width="130" height="40" rx="8" fill="#000"/><rect x=".5" y=".5" width="129" height="39" rx="7.5" stroke="#A6A6A6"/><path d="M10.36 7.54c-.32.39-.5.89-.46 1.4v22.12c-.04.51.13 1.01.46 1.4l.07.08 12.3-12.39v-.3L10.43 7.47l-.07.07z" fill="url(#paint0_linear)"/><path d="M26.8 24.28l-4.07-4.13v-.3l4.07-4.13.09.06 4.87 2.78c1.4.79 1.4 2.09 0 2.89l-4.85 2.78-.11.05z" fill="url(#paint1_linear)"/><path d="M26.92 24.22L22.73 20 10.36 32.46a1.6 1.6 0 002.06.07l14.5-8.31z" fill="url(#paint2_linear)"/><path d="M26.92 15.78l-14.5-8.3a1.59 1.59 0 00-2.06.06L22.73 20l4.19-4.22z" fill="url(#paint3_linear)"/><path opacity=".2" d="M26.8 24.13l-14.38 8.25a1.64 1.64 0 01-1.99 0l-.07.07.07.08a1.64 1.64 0 001.99 0l14.5-8.31-.12-.09z" fill="#000"/><path opacity=".12" d="M10.36 32.32c-.32-.4-.47-.9-.43-1.41v.15c-.04.51.13 1.01.46 1.4l.07-.07-.1-.07zM31.76 21.3l-4.96 2.83.09.09 4.87-2.78A1.74 1.74 0 0032.81 20a1.87 1.87 0 01-1.05 1.3z" fill="#000"/><path opacity=".25" d="M12.42 7.62L31.76 18.7a1.85 1.85 0 011.05 1.3 1.76 1.76 0 00-1.05-1.44L12.42 7.48c-1.38-.8-2.52-.14-2.52 1.46v.15c.03-1.6 1.14-2.26 2.52-1.47z" fill="#fff"/><path d="M65.74 21.66a3.91 3.91 0 00-3.62 2.45 4 4 0 002.88 5.4 3.9 3.9 0 004.03-1.7c.43-.65.66-1.41.66-2.2a3.92 3.92 0 00-2.43-3.67c-.48-.2-1-.3-1.52-.28zm0 6.35a2.37 2.37 0 01-2.31-1.36 2.42 2.42 0 011.62-3.37 2.37 2.37 0 012.5.98c.26.4.4.87.41 1.35a2.3 2.3 0 01-1.34 2.2c-.27.13-.57.2-.88.2zm-8.6-6.35a3.91 3.91 0 00-3.63 2.45 3.99 3.99 0 002.88 5.4 3.9 3.9 0 004.03-1.7c.43-.65.66-1.41.66-2.2a3.92 3.92 0 00-2.42-3.67c-.49-.2-1-.3-1.52-.28zm0 6.35a2.37 2.37 0 01-2.32-1.36 2.42 2.42 0 011.62-3.37 2.37 2.37 0 012.5.98c.27.4.41.87.42 1.35a2.3 2.3 0 01-1.34 2.2c-.28.13-.58.2-.88.2zm-10.23-5.13v1.67h3.99a3.52 3.52 0 01-2.34 3.06c-.53.2-1.1.3-1.67.28a4.42 4.42 0 01-4.43-4.46 4.48 4.48 0 014.43-4.47 4.27 4.27 0 013.03 1.2l1.17-1.18a5.81 5.81 0 00-4.18-1.7 6.06 6.06 0 00-5.85 3.74 6.19 6.19 0 003.44 8.16c.77.3 1.59.43 2.41.4a5.57 5.57 0 004.26-1.73 5.6 5.6 0 001.44-3.93c0-.35-.03-.7-.09-1.04h-5.61zm41.83 1.3a3.72 3.72 0 00-3.36-2.52 3.67 3.67 0 00-3.48 2.46c-.17.47-.24.98-.21 1.5a3.95 3.95 0 002.76 3.8 3.88 3.88 0 004.4-1.6l-1.33-.93a2.23 2.23 0 01-1.93 1.08 1.97 1.97 0 01-1.9-1.2l5.25-2.18-.2-.41zM83.4 25.5a2.2 2.2 0 011.23-2.1c.26-.13.54-.2.83-.22a1.5 1.5 0 011.45.85l-3.51 1.47zm-4.27 3.83h1.73V17.7h-1.73v11.63zm-2.82-6.79h-.07a2.72 2.72 0 00-2.06-.93 3.92 3.92 0 00-3.75 3.96 3.98 3.98 0 003.75 3.96 2.64 2.64 0 002.06-.93h.07v.56c0 1.52-.8 2.33-2.1 2.33a2.17 2.17 0 01-1.98-1.4l-1.5.62a3.72 3.72 0 003.48 2.34c2.02 0 3.7-1.2 3.7-4.12V21.9h-1.6v.65zm-1.99 5.47a2.38 2.38 0 01-2.23-2.4 2.41 2.41 0 012.23-2.39 2.2 2.2 0 012 1.51c.1.29.13.58.1.88a2.23 2.23 0 01-1.24 2.19c-.27.13-.56.2-.86.21zm22.52-10.3H92.7v11.62h1.72v-4.4h2.41a3.57 3.57 0 003.55-2.17 3.64 3.64 0 00-2.1-4.86 3.57 3.57 0 00-1.45-.2zm0 5.58h-2.4v-3.97h2.44a1.96 1.96 0 011.82 1.23 2 2 0 01-1.07 2.6c-.23.1-.5.15-.75.15l-.04-.01zm10.66-1.67a3.2 3.2 0 00-3.08 1.78l1.53.64a1.65 1.65 0 011.57-.85 1.65 1.65 0 011.85 1.5v.11a3.84 3.84 0 00-1.8-.44c-1.64 0-3.32.93-3.32 2.62a2.7 2.7 0 001.81 2.43c.34.11.7.15 1.06.13a2.43 2.43 0 002.2-1.14h.05v.93h1.66v-4.47c0-2.04-1.53-3.22-3.5-3.22l-.03-.02zm-.22 6.37c-.56 0-1.34-.29-1.34-.98 0-.93.97-1.25 1.84-1.25.55-.01 1.1.12 1.57.4a2.1 2.1 0 01-2.03 1.85l-.04-.02zm9.81-6.1l-1.98 5.04h-.05L113 21.9h-1.85l3.08 7.05-1.76 3.92h1.8L119 21.89h-1.92zm-15.51 7.44h1.72V17.7h-1.72v11.63z" fill="#fff"/><path d="M41.71 14.7h-.67v-1.86h.57a2.65 2.65 0 00.67-2.11v-2.8h3.7v4.9h.62v1.86h-.69v-1.17h-4.2v1.18zM43 10.73c.04.75-.15 1.49-.53 2.13h2.77V8.63H43v2.1zM52.15 12.8a2.86 2.86 0 01-4.06 0 3 3 0 010-4.14 2.86 2.86 0 014.06 0 2.87 2.87 0 01.82 2.07 2.8 2.8 0 01-.82 2.06zm-3.54-.47a2.05 2.05 0 001.5.63 2 2 0 001.51-.63 2.37 2.37 0 000-3.2 2.02 2.02 0 00-1.5-.63 2.04 2.04 0 00-1.51.63 2.4 2.4 0 000 3.2zM56.55 13.64a2.75 2.75 0 01-2.01-.83 3.03 3.03 0 010-4.17 2.77 2.77 0 012.05-.82 2.52 2.52 0 012.03.93l-.5.48a1.85 1.85 0 00-1.53-.72 2.06 2.06 0 00-1.54.63 2.4 2.4 0 000 3.22 2.08 2.08 0 002.45.39c.28-.14.53-.35.73-.6l.5.5a2.77 2.77 0 01-2.18.99zM61.63 13.52h-.71v-4.9h-1.55v-.68h3.8v.69h-1.54v4.89zM68.06 7.94l-2.1 4.7a1.35 1.35 0 01-1.28 1c-.2 0-.38-.04-.56-.12l.18-.66c.12.06.24.1.37.1.14 0 .28-.03.4-.1.1-.1.19-.22.24-.35l.2-.45-1.84-4.12h.84l1.36 3.2 1.35-3.2h.84zM68.87 13.52V7.94h4v5.58h-.7v-4.9h-2.6v4.9h-.7zM74.14 13.52V7.94h.7v2.39h2.78v-2.4h.72v5.59h-.72V11h-2.77v2.52h-.71zM84.14 12.8a2.87 2.87 0 01-4.07 0 3 3 0 010-4.14 2.86 2.86 0 014.06 0 3.02 3.02 0 010 4.13h0zm-3.54-.47a2.02 2.02 0 001.5.63 2.04 2.04 0 001.51-.63 2.4 2.4 0 000-3.2 2.05 2.05 0 00-1.5-.63 2 2 0 00-1.5.63 2.37 2.37 0 000 3.2zM87.86 13.52V7.94h2c.42 0 .82.15 1.13.43a1.4 1.4 0 01.48 1.08c0 .25-.07.5-.2.71-.14.2-.33.36-.55.46.27.09.5.26.67.48a1.47 1.47 0 01-.24 1.93c-.32.3-.74.46-1.18.45l-2.11.04zm.7-3.2h1.3a.8.8 0 00.65-.26.84.84 0 00.25-.59.87.87 0 00-.22-.6.79.79 0 00-.61-.26H88.6l-.03 1.72zm0 2.51h1.45a.84.84 0 00.66-.29c.16-.17.25-.4.25-.63a.93.93 0 00-.95-.91h-1.4v1.83z" fill="#fff" stroke="#fff" stroke-width=".2" stroke-miterlimit="10"/><defs><linearGradient id="paint0_linear" x1="21.64" y1="8.71" x2="4.86" y2="25.37" gradientUnits="userSpaceOnUse"><stop stop-color="#00A0FF"/><stop offset=".01" stop-color="#00A1FF"/><stop offset=".26" stop-color="#00BEFF"/><stop offset=".51" stop-color="#00D2FF"/><stop offset=".76" stop-color="#00DFFF"/><stop offset="1" stop-color="#00E3FF"/></linearGradient><linearGradient id="paint1_linear" x1="33.58" y1="20" x2="9.57" y2="20" gradientUnits="userSpaceOnUse"><stop stop-color="#FFE000"/><stop offset=".41" stop-color="#FFBD00"/><stop offset=".78" stop-color="orange"/><stop offset="1" stop-color="#FF9C00"/></linearGradient><linearGradient id="paint2_linear" x1="24.65" y1="22.3" x2="1.89" y2="44.88" gradientUnits="userSpaceOnUse"><stop stop-color="#FF3A44"/><stop offset="1" stop-color="#C31162"/></linearGradient><linearGradient id="paint3_linear" x1="7.25" y1=".18" x2="17.41" y2="10.26" gradientUnits="userSpaceOnUse"><stop stop-color="#32A071"/><stop offset=".07" stop-color="#2DA771"/><stop offset=".48" stop-color="#15CF74"/><stop offset=".8" stop-color="#06E775"/><stop offset="1" stop-color="#00F076"/></linearGradient></defs></svg>