<svg width="40" height="40" fill="none" xmlns="http://www.w3.org/2000/svg"><path fill="url(#paint0_linear)" d="M0 0h40v40H0z"/><path d="M25.82 7H14.17A7.18 7.18 0 007 14.18v11.64A7.18 7.18 0 0014.17 33h11.65A7.18 7.18 0 0033 25.82V14.18A7.18 7.18 0 0025.82 7zm4.87 18.82a4.87 4.87 0 01-4.87 4.87H14.17a4.87 4.87 0 01-4.86-4.87V14.18a4.87 4.87 0 014.86-4.87h11.65a4.87 4.87 0 014.87 4.87v11.64z" fill="#fff"/><path d="M20 13.3a6.7 6.7 0 10.02 13.41 6.7 6.7 0 00-.02-13.4zm0 11.1a4.4 4.4 0 11.01-8.8 4.4 4.4 0 01-.01 8.8zM26.98 11.34a1.7 1.7 0 00-1.7 1.7 1.7 1.7 0 001.7 1.69 1.7 1.7 0 001.2-2.89 1.7 1.7 0 00-1.2-.5z" fill="#fff"/><defs><linearGradient id="paint0_linear" x1="2.69" y1="37.39" x2="39.75" y2="5.31" gradientUnits="userSpaceOnUse"><stop stop-color="#F1C800"/><stop offset=".36" stop-color="#F02501"/><stop offset=".67" stop-color="#C837AB"/><stop offset="1" stop-color="#7C39AD"/></linearGradient></defs></svg>