<svg width="40" height="40" fill="none" xmlns="http://www.w3.org/2000/svg"><path fill="#FF9800" d="M0 0h40v40H0z"/><path d="M12.11 20.95c-.66 1.31.1 1.93 1.81 3 1.47.9 3.49 1.23 4.79 1.37-.54.5 1.9-1.84-5.12 4.92-1.49 1.42.9 3.71 2.4 2.31L20 28.67c1.54 1.48 3.02 2.9 4.03 3.89 1.49 1.4 3.88-.87 2.41-2.32l-5.13-4.92c1.31-.13 3.3-.48 4.75-1.36 1.72-1.08 2.47-1.7 1.82-3-.4-.75-1.46-1.37-2.88-.3 0 0-1.92 1.47-5 1.47-3.1 0-5.02-1.46-5.02-1.46-1.41-1.08-2.48-.46-2.88.28z" fill="#fff"/><path d="M20 20.15c3.77 0 6.84-2.94 6.84-6.57A6.72 6.72 0 0020 7a6.72 6.72 0 00-6.85 6.58c0 3.63 3.08 6.57 6.85 6.57zm0-9.81a3.3 3.3 0 013.36 3.24A3.3 3.3 0 0120 16.82a3.3 3.3 0 01-3.36-3.24A3.3 3.3 0 0120 10.34z" fill="#fff"/></svg>