<svg width="159" height="40" fill="none" xmlns="http://www.w3.org/2000/svg"><g clip-path="url(#clip0)" fill="#1A9F29"><path d="M41.59 18.5a6.37 6.37 0 002.43 1.63c.99.4 2.1.6 3.48.6.66 0 1.32-.07 1.84-.14a5.1 5.1 0 001.51-.4c.46-.12.86-.32 1.25-.45.33-.2.66-.33.92-.46l-.46-.98-.79.39c-.26.13-.52.2-.85.33-.33.06-.66.2-1.05.2-.4.06-.86.06-1.38.06-.99 0-1.84-.2-2.43-.6a4.74 4.74 0 01-1.51-1.5 7.85 7.85 0 01-.73-2.3c-.13-.91-.2-1.83-.2-2.88 0-.79.07-1.64.14-2.5.06-.84.26-1.57.59-2.22.33-.66.72-1.18 1.31-1.64a4.2 4.2 0 012.37-.66c.92 0 1.7.27 2.36.72.66.46 1.05 1.25 1.25 2.23h1.05v-3.2a6.99 6.99 0 00-2.3-.66c-.46-.07-.85-.07-1.31-.14-.4 0-.79-.06-1.12-.06-1.44 0-2.63.2-3.68.59-.98.4-1.84.98-2.5 1.7a7.06 7.06 0 00-1.44 2.7c-.33 1.04-.46 2.29-.46 3.6 0 1.24.13 2.43.46 3.4.2 1.12.66 1.98 1.25 2.63zM105.85 20.2a5.6 5.6 0 002.17-.66c.65-.4 1.18-.92 1.5-1.64.4-.72.6-1.7.6-2.95 0-.92-.13-1.64-.4-2.3a3.62 3.62 0 00-1.25-1.57c-.59-.4-1.3-.65-2.23-.85-.92-.2-2.04-.26-3.35-.26h-1.38V6.1c0-.4.07-.66.26-.79.2-.13.53-.13 1.05-.13h1.98c.59 0 1.11 0 1.5.07.4.06.73.13.93.32.26.2.46.46.59.8.13.32.33.78.46 1.37h.85v-3.6H97.04v.52c.07 0 .13.06.33.06.2.07.33.13.4.2.06.06.13.2.2.4 0 .19.06.38.06.65v12.52c0 .26 0 .53-.07.66 0 .2-.06.33-.2.4-.06.06-.2.19-.39.19-.2.06-.26.06-.33.06v.53h6.11c.99 0 1.84 0 2.7-.13zm-4.01-1.18a.6.6 0 01-.2-.46c0-.2-.06-.46-.06-.79v-6.82h1.38c1.24 0 2.16.33 2.69.98.52.66.79 1.7.79 3.15 0 .99-.07 1.7-.27 2.3-.2.59-.39.98-.72 1.3-.33.27-.66.47-.98.6-.4.06-.8.13-1.19.13-.39-.07-.72-.07-.92-.13-.2-.07-.39-.13-.52-.26zM88.57 19.8c-.07 0-.13-.06-.33-.06-.2-.07-.33-.13-.4-.2-.06-.06-.13-.2-.2-.4 0-.19-.06-.39-.06-.65v-4.52h1.64c.86 0 1.65-.07 2.43-.2.8-.13 1.45-.4 2.04-.72a3.6 3.6 0 001.38-1.57 6.1 6.1 0 00.53-2.7c0-1.04-.2-1.9-.46-2.48a4 4 0 00-1.32-1.45 4.35 4.35 0 00-1.9-.59c-.73-.06-1.45-.13-2.24-.13h-6.43v.53c.06 0 .13.06.32.06.2.07.33.13.4.2.06.06.13.2.2.4 0 .19.06.38.06.65v12.46c0 .26 0 .52-.07.65 0 .2-.06.33-.2.4-.06.06-.19.2-.39.2-.2.06-.26.06-.32.06v.52h5.32v-.46zm-.92-13.83c0-.13 0-.27.06-.4 0-.13.07-.2.13-.26.07-.06.2-.13.4-.13s.4-.07.72-.07c.4 0 .79.07 1.18.14.4.13.66.32.99.59.26.26.46.65.66 1.11.13.46.2 1.05.2 1.7a6.7 6.7 0 01-.6 3.15c-.4.72-1.11 1.12-2.1 1.12h-1.64V5.97zM81.08 16.59h-1.05c-.14.66-.27 1.11-.4 1.5-.13.4-.26.66-.52.86-.2.2-.53.33-.92.33-.4.06-.92.06-1.65.06-.65 0-1.18 0-1.5-.06-.4-.07-.66-.13-.86-.26-.2-.13-.33-.33-.33-.53-.07-.26-.07-.52-.07-.92v-5.11h2.83c.26 0 .52.06.79.06.26 0 .52.07.79.14.26.06.46.13.65.26v-2.1c-.2.13-.4.2-.65.26a3.3 3.3 0 01-.8.13c-.26.07-.52.07-.78.07h-2.83V5.9c0-.33.07-.59.14-.72.13-.13.32-.13.65-.13h1.78c.59 0 1.11 0 1.5.06.4.07.73.14.93.33.26.2.46.46.59.79.13.33.33.79.46 1.38h.85V4.13h-11.3v.53c.07 0 .13.06.33.06.2.07.33.13.4.2.06.06.13.2.2.4 0 .19.06.38.06.65v12.46c0 .26 0 .52-.07.65 0 .2-.06.33-.2.4-.06.06-.2.2-.39.2-.2.06-.26.06-.33.06v.52h11.7V16.6zM63.2 20.2a5.6 5.6 0 002.17-.66c.66-.4 1.19-.92 1.58-1.64.4-.72.6-1.7.6-2.95 0-.92-.14-1.64-.4-2.3a3.61 3.61 0 00-1.25-1.57c-.6-.4-1.31-.65-2.23-.85-.92-.2-2.04-.26-3.36-.26h-1.38V6.1c0-.4.07-.66.27-.79s.52-.13 1.05-.13h1.97c.6 0 1.12 0 1.51.07.4.06.72.13.92.32.26.2.46.46.6.8.12.32.32.78.45 1.37h.86v-3.6H54.47v.52c.06 0 .13.06.33.06.2.07.32.13.39.2.07.06.13.2.2.4 0 .19.06.38.06.65V18.43c0 .26 0 .46-.06.65 0 .2-.07.33-.2.4-.07.06-.2.2-.4.2-.2.06-.26.06-.32.06v.59h6.1c1 0 1.78 0 2.64-.13zm-4-1.18a.6.6 0 01-.2-.46c0-.2-.06-.46-.06-.79v-6.82h1.37c1.25 0 2.17.33 2.7.98.52.66.79 1.7.79 3.15 0 .99-.07 1.7-.27 2.3-.2.59-.39.98-.72 1.3-.33.27-.66.47-.98.6-.4.06-.8.13-1.19.13-.4-.07-.65-.07-.92-.13-.2-.07-.4-.13-.52-.26zM158.87 24.92H39.75v1.57h119.12v-1.57zM149.34 14.23c.33.46.6.85.92 1.25.26.39.6.78.86 1.18.26.39.52.78.85 1.18.33.46.6.85.85 1.3.27.4.46.86.66 1.25l5.52.07c-.6-.6-1.12-1.18-1.7-1.77a113.5 113.5 0 01-3.94-4.46c-.4-.46-.8-.98-1.13-1.44-.33-.46-.72-1.05-1.05-1.58l.26-.32c.4-.53.86-1.05 1.38-1.71.53-.66 1.06-1.31 1.65-1.9.59-.66 1.11-1.25 1.7-1.77.6-.53 1.06-.92 1.52-1.25h-3.81a9.7 9.7 0 01-.6 1.18c-.26.46-.52.99-.92 1.51-.32.53-.72 1.12-1.05 1.7-.4.6-.72 1.12-1.11 1.65-.4.52-.73 1.04-1.05 1.44-.33.46-.6.78-.8 1.11l1 1.38z"/><path d="M148.88 19.8c-.06 0-.13-.06-.33-.06-.2-.07-.33-.13-.4-.2-.06-.06-.12-.2-.19-.4 0-.19-.06-.39-.06-.65V6.03c0-.26 0-.52.06-.65 0-.2.07-.33.2-.4.06-.06.2-.13.4-.2.19-.06.26-.06.32-.06v-.59h-5.32v.53c.07 0 .13.06.33.06.2.07.33.13.4.2.06.06.12.2.19.4 0 .19.06.38.06.65v12.46c0 .26 0 .52-.06.65 0 .2-.07.33-.2.4-.06.06-.2.2-.4.2-.19.06-.25.06-.32.06v.52h5.32v-.46zM113.53 18.36c.2-.92.6-2.23 1.12-3.87h5.2l.71 2.1c.33.92.6 1.7.73 2.36.2.66.32 1.12.32 1.44h4.14c-.2-.32-.39-.78-.65-1.3a18.3 18.3 0 01-.92-2.3l-3.75-10.63c-.2-.46-.26-.85-.33-1.18-.06-.32-.06-.59-.13-.78h-4.66v.52c.06 0 .13.07.33.07.2.06.33.13.39.2.07.06.13.19.2.39v.32c0 .4-.07.8-.2 1.05l-2.63 6.43c-.46 1.18-.92 2.23-1.25 3.02-.32.78-.65 1.5-.85 2.03-.26.52-.46.98-.66 1.31-.2.33-.33.6-.46.85h2.96c.06-.46.2-1.11.4-2.03zm3.75-11.54l2.17 6.56h-4.47l2.3-6.56zM132 19.8h-.13c-.07 0-.14-.06-.33-.06-.2-.07-.33-.13-.4-.2-.06-.06-.13-.2-.2-.4 0-.19-.06-.39-.06-.65v-6.23h6.3v6.17c0 .26 0 .52-.06.65 0 .2-.06.33-.2.4-.06.06-.2.2-.39.2-.2.06-.26.06-.33.06v.52h5.32v-.52c-.06 0-.13-.07-.33-.07-.2-.06-.32-.13-.39-.2-.06-.06-.13-.2-.2-.39 0-.2-.06-.4-.06-.65V5.9c0-.27 0-.53.06-.66 0-.2.07-.33.2-.4.07-.06.2-.13.4-.2.2-.06.26-.06.32-.06v-.46h-5.19v.53c.07 0 .13.06.33.06.2.07.33.13.4.2.06.06.13.2.2.4 0 .19.06.38.06.65v5.18h-6.3V5.97c0-.27 0-.53.06-.66 0-.2.06-.33.2-.4.06-.06.2-.12.39-.19.2-.06.26-.06.33-.06v-.53h-5.33v.53c.07 0 .14.06.33.06.2.07.33.13.4.2.06.06.13.2.2.4 0 .19.06.38.06.65v12.52c0 .26 0 .46-.07.66 0 .2-.06.33-.2.4-.06.06-.19.19-.39.19-.2.06-.26.06-.33.06v.53H132v-.53zM28.9 5.84l-.98-1.38-18.2 10.43-8.8-5.05a8 8 0 00-.4 1.7l9.27 5.31L28.91 5.84z"/><path d="M9.72 18.82L.26 13.38C.2 13.7.2 14.1.2 14.43c0 8.59 6.96 15.6 15.63 15.6A15.62 15.62 0 0029.76 7.34L9.72 18.82z"/><path d="M26.68 3.15c-.46-.46-.92-.79-1.38-1.18L9.72 10.95 2.23 6.7c-.26.46-.52.98-.78 1.5l8.2 4.73 17.03-9.77z"/><path d="M23.72.92c-.6-.33-1.18-.66-1.84-.92L9.72 7.02 4.27 3.93c-.4.4-.72.86-1.12 1.32l6.5 3.73L23.73.92zM106.44 38.36l1.25-6.43h2.03c1.19 0 1.71.6 1.71 1.51 0 .86-.52 1.31-1.51 1.64.66.26 1.05.72 1.05 1.38 0 1.18-.79 1.84-2.36 1.84h-2.17v.06zm.79-.59h1.5c1 0 1.58-.52 1.58-1.31 0-.6-.52-1.18-1.5-1.18h-1.19l-.4 2.49zm.59-3.02h1.31c1.12 0 1.71-.52 1.71-1.3 0-.66-.4-1-1.18-1h-1.32l-.52 2.3zM115.44 37.18c-.4.72-.86 1.25-1.77 1.25-1.06 0-1.78-.86-1.78-2.04 0-1.44.92-2.69 2.17-2.69.92 0 1.38.53 1.64 1.32l-.59.13c-.2-.6-.53-.92-1.05-.92-.86 0-1.58.92-1.58 2.23 0 .92.46 1.38 1.25 1.38.72 0 .99-.4 1.25-.86l.46.2zM116.82 36.13v.33c0 .92.46 1.44 1.18 1.44.66 0 1.05-.46 1.45-1.05l.52.26c-.52.8-1.05 1.32-2.03 1.32-1.05 0-1.71-.8-1.71-1.97 0-1.57.92-2.76 2.23-2.76 1.05 0 1.64.66 1.64 1.84 0 .2-.06.4-.06.6h-3.22zm2.7-.52c.06-.13 0-.2 0-.27 0-.52-.34-1.04-1.06-1.04-.85 0-1.25.52-1.51 1.37h2.56v-.06zM121.61 33.84h2.57l-.07.52h-1.97l-.79 4h-.59l.85-4.52zM123.65 37.84l1.9-4h.93l.52 4h.46l-.26 1.37h-.46l.07-.85h-3.1l-.25.85H123l.26-1.37h.4zm2.7 0l-.33-3.41h-.13l-1.58 3.4h2.04zM131.2 35.67c0-.2.07-.4.07-.52 0-.53-.4-.85-.98-.85-.4 0-.72.2-.99.52l-.4-.4c.4-.32.86-.65 1.52-.65.92 0 1.51.6 1.51 1.31 0 .13-.06.4-.06.72l-.33 1.51c-.13.53-.13.85-.13 1.12h-.6c-.06-.13-.06-.33-.06-.53-.4.33-.79.6-1.32.6-.72 0-1.31-.6-1.31-1.32 0-.92.85-1.5 2.43-1.5h.66zm-.12.46h-.46c-1.25 0-1.9.33-1.9.98 0 .46.32.8.78.8s.85-.27 1.31-.6l.27-1.18zM136.66 34.36c.4-.4.79-.66 1.31-.66 1 0 1.52.66 1.52 1.9 0 1.65-.99 2.83-2.17 2.83-.6 0-.99-.27-1.32-.6l-.46 2.3h-.59l1.25-6.36h.53l-.07.6zm-.53 2.89c.27.39.6.65 1.19.65.85 0 1.64-.98 1.64-2.36 0-.85-.4-1.31-1.05-1.31-.46 0-.92.2-1.25.79l-.53 2.23zM142.05 36.26l-1.45 2.1h-.65l1.5-2.1c-.58-.2-.91-.65-.91-1.18 0-.59.52-1.24 1.57-1.24h2.17l-.92 4.52h-.59l.4-2.1h-1.12zm1.44-1.96h-1.44c-.66 0-.99.39-.99.72 0 .46.27.65.8.65h1.3l.33-1.37zM144.87 37.84l1.9-4h.93l.53 4h.46l-.27 1.37h-.46l.07-.85h-3.09l-.26.85h-.46l.26-1.37h.4zm2.63 0l-.33-3.41h-.13l-1.57 3.4h2.03zM149.21 36.46c0-1.57.99-2.76 2.17-2.76.98 0 1.58.8 1.58 1.97 0 1.51-.99 2.76-2.17 2.76-.92 0-1.58-.73-1.58-1.97zm.6.13c0 .85.45 1.31 1.04 1.31.8 0 1.58-.98 1.58-2.3 0-.85-.46-1.37-1.05-1.37-.79 0-1.58.98-1.58 2.36zM158.21 34.36l-1.97 4h-.6l-.58-4-.8 4h-.58l.92-4.52h.98l.53 3.93 1.9-3.93h.99l-.92 4.52h-.6l.73-4z"/></g><defs><clipPath id="clip0"><path fill="#fff" d="M0 0h159v40H0z"/></clipPath></defs></svg>