<svg width="40" height="40" fill="none" xmlns="http://www.w3.org/2000/svg"><path fill="#4A76A8" d="M0 0h40v40H0z"/><path d="M29.38 21.88c.86.8 1.77 1.54 2.54 2.42.34.39.67.79.92 1.24.35.64.03 1.34-.58 1.38h-3.79c-.98.08-1.75-.3-2.41-.92-.52-.5-1.01-1.04-1.51-1.56-.21-.22-.43-.42-.69-.58-.51-.31-.96-.21-1.26.3-.3.51-.37 1.08-.4 1.66-.04.84-.3 1.06-1.2 1.1-1.92.08-3.73-.19-5.42-1.1a11.72 11.72 0 01-3.65-3.22 42.7 42.7 0 01-4.8-8.06c-.3-.64-.08-.98.66-.99 1.24-.02 2.48-.02 3.71 0 .5 0 .84.28 1.03.72a21.3 21.3 0 002.51 4.4c.28.36.56.72.95.98.44.28.78.19.98-.27.14-.3.2-.61.22-.92.1-1.08.11-2.16-.06-3.23-.1-.67-.5-1.1-1.21-1.23-.37-.07-.31-.2-.14-.39.3-.33.6-.54 1.16-.54h4.29c.67.12.82.4.91 1.05v4.48c0 .25.14.98.6 1.14.39.12.64-.17.86-.4a13.84 13.84 0 002.41-3.48c.3-.55.54-1.13.78-1.7.18-.42.46-.63.97-.62h4.12c.12 0 .25 0 .37.02.7.11.88.4.67 1.03-.34 1-1 1.84-1.64 2.68-.69.9-1.42 1.76-2.1 2.66-.63.82-.58 1.24.2 1.95z" fill="#fff"/></svg>